PathFileType	4	(X/Y/Z)	C:\Users\WrightLab\Desktop\Jo\P2_Trial31.trc
DataRate	CameraRate	NumFrames	NumMarkers	Units	OrigDataRate	OrigDataStartFrame	OrigNumFrames
100.00	100.00	       22	19	mm	100.00	508	       812
Frame#	Time	Headset_Front			Headset_Back			Headset_Left			Headset_Right			Left_Shoulder			Right_Shoulder			Sternum			C7			Left Elbow			Right Elbow			Left Wrist			Right Wrist			Left ASIS			Right ASIS			S2			Left Knee			Right Knee			Left Ankle			Right Ankle			
		X1	Y1	Z1	X2	Y2	Z2	X3	Y3	Z3	X4	Y4	Z4	X5	Y5	Z5	X6	Y6	Z6	X7	Y7	Z7	X8	Y8	Z8	X9	Y9	Z9	X10	Y10	Z10	X11	Y11	Z11	X12	Y12	Z12	X13	Y13	Z13	X14	Y14	Z14	X15	Y15	Z15	X16	Y16	Z16	X17	Y17	Z17	X18	Y18	Z18	X19	Y19	Z19	

508	5.070	86.34209	1510.07458	1731.39221							5.49414	1570.46936	1621.19226	302.33231	1446.70471	1512.32324	-29.81484	1439.41260	1520.23828	137.80675	1330.48291	1586.93396	120.49885	1434.22192	1407.10730	434.12430	1105.45654	1457.80249	-106.05769	1109.13623	1462.10400	488.39853	872.01642	1421.22424	-133.98894	857.74036	1478.24780	192.51971	1044.28455	1636.42419	68.61667	1007.10724	1613.77551	213.03445	953.44196	1379.37256	296.57172	498.30197	1683.13794	37.22940	525.57507	1375.69897	230.77197	277.19946	1895.63318	525.16785	774.28094	1489.22363	
509	5.080	83.21304	1511.83826	1741.12134	232.57884	1611.72937	1629.81494				2.62234	1572.65625	1630.26941	300.33936	1447.57544	1524.08655	-31.34686	1440.40430	1527.71252	135.12346	1331.37976	1596.09204				436.46054	1107.63147	1474.50940	-106.11990	1110.30420	1470.51514	490.49207	873.37219	1441.23364	-134.02304	858.84918	1486.59192	189.48898	1045.20544	1647.94653	66.40331	1007.76678	1623.38989	213.99902	953.82147	1392.55603	294.31329	500.24283	1697.78577	37.80262	524.73871	1391.24121	222.18985	267.30466	1899.46130				
510	5.090	79.90882	1513.11011	1749.49426	229.98376	1612.69946	1639.31189				0.96649	1573.74695	1637.74854	298.32816	1448.32080	1535.25378	-33.28610	1441.76428	1535.22119	132.14839	1333.27661	1606.61743				435.61584	1109.07434	1492.12891	-106.59834	1111.44629	1477.97253	491.83575	874.36517	1461.93115	-134.23921	860.18512	1497.13354	187.05727	1046.96436	1658.24170	64.26195	1008.98138	1633.50342	213.31259	954.29199	1403.68433	292.32312	503.20490	1714.88623	39.82166	523.88782	1406.40552	207.77669	255.83711	1899.21423	139.46571	219.79353	1173.09692	
511	5.100	76.96597	1514.81140	1759.54138	228.24426	1613.50647	1649.12915				-1.14080	1575.47363	1646.40417	296.32098	1449.91785	1546.95923	-34.91828	1442.64404	1541.97803	129.49748	1334.59912	1616.18738				434.31619	1109.17297	1509.21851	-107.09867	1112.59583	1484.77161	493.19656	875.83875	1482.77612	-135.21422	861.38940	1505.09399	184.97836	1049.12207	1670.00391	61.99623	1010.24481	1643.24377	214.07739	954.85913	1415.26965	291.32889	503.96466	1729.76013	39.80903	523.47748	1422.72668	197.46338	244.31787	1902.30432	142.71397	229.46584	1189.19238	
512	5.110	73.83378	1516.52136	1766.71008							-4.24119	1577.69250	1653.62390	293.82031	1451.45251	1558.58313	-37.18690	1444.12061	1548.49048	125.94831	1335.77515	1624.84924				434.07462	1111.18762	1527.11865	-108.19349	1113.56189	1492.18811	495.04214	877.84100	1505.08142	-135.77562	862.76984	1514.03015	182.83882	1050.86169	1680.94177	59.84326	1011.65808	1653.03101	213.66362	955.31702	1425.01685	287.88211	504.60031	1740.87537	40.23429	522.63464	1438.45105	187.88298	232.37112	1904.62292	142.26118	241.21356	1207.50757	
513	5.120	70.19836	1517.73938	1774.71790	221.74796	1617.08313	1668.01306				-7.35028	1579.75378	1663.22156	291.87753	1453.45239	1569.78662	-39.03561	1445.10107	1553.34509	122.78105	1338.57141	1635.20886				434.18658	1112.94592	1544.19214	-109.75970	1114.50940	1498.15845	496.07336	878.91595	1528.12976	-136.77251	863.63831	1522.91248	180.78613	1052.40552	1690.22791	57.48906	1012.71088	1661.24512	213.62804	956.33966	1434.41406	286.76059	505.06842	1753.45801	39.82799	521.87067	1455.51514	179.77263	219.09106	1904.00891	137.01450	251.30037	1227.41943	
514	5.130	66.76067	1520.44019	1783.68225							-9.81730	1581.59949	1670.75110	289.35114	1455.28540	1580.91370	-41.53521	1446.82239	1559.67346	119.69382	1340.39526	1643.17432				432.93161	1114.88013	1562.39722	-110.94664	1115.61304	1504.83496	496.15744	881.38458	1550.32910	-137.13757	865.28162	1530.53235	178.33772	1054.15906	1700.63660	54.86490	1014.84106	1669.79443	214.41528	957.23822	1446.23547	284.90277	506.73651	1765.87244	41.08154	520.96686	1472.34485	172.49283	206.90517	1904.11279	130.09190	261.22275	1250.15881	
515	5.140	62.93710	1522.52490	1792.02625	215.52530	1620.93884	1683.73560				-14.06734	1584.07666	1679.25073	287.00809	1457.12659	1592.03662	-43.49183	1448.92737	1565.00635	115.26585	1343.19177	1652.20654				431.87988	1117.39795	1580.86682	-112.32419	1116.94202	1509.79431	496.62146	883.46399	1572.65662	-138.10556	866.94293	1538.44678	174.98767	1056.50098	1710.17346	52.33102	1016.85986	1677.66382	214.64528	958.27820	1456.61951	282.44385	507.99881	1777.07837	41.11294	520.22784	1490.03271	167.32027	197.29680	1901.11353	121.92813	270.77124	1270.44238	
516	5.150	58.75332	1524.47852	1799.83765	211.94006	1623.60278	1693.71130				-17.36788	1585.66516	1685.71350	284.24210	1459.95544	1602.68933	-45.89059	1450.47864	1571.15454	111.85739	1345.15393	1660.14587				430.70154	1119.64868	1599.26392	-113.79914	1118.82043	1515.38965	496.19885	886.06677	1597.98804	-138.45314	868.06995	1544.60217	171.36307	1058.71692	1720.21301	49.57331	1018.55255	1684.47339	214.95377	960.06946	1466.30176	276.69116	512.26239	1789.08435	40.18952	520.69019	1508.08215	163.69032	191.94731	1897.65100	113.71855	280.45908	1290.48511	
517	5.160	54.41053	1526.88342	1806.96094							-21.48895	1588.33972	1693.01611	281.71140	1462.49780	1613.94055	-49.05291	1452.52881	1578.02185	108.05935	1348.08667	1668.77393				429.87244	1123.01477	1617.27148	-114.73846	1120.72437	1519.61047	495.52722	889.39355	1621.71069	-139.89369	870.83252	1550.43079	167.35551	1060.64722	1729.16370	45.37855	1021.43945	1692.70483	216.32739	962.63867	1477.37000	270.89380	516.77240	1799.02942	38.01727	522.41266	1524.49255	162.85909	189.42967	1890.63879	104.91846	289.50156	1311.52917	
518	5.170	50.15494	1528.98608	1813.90076							-24.42337	1589.62756	1698.35999	279.06161	1465.49243	1625.09888	-50.51987	1453.19934	1582.19788	104.22865	1351.23645	1677.03406				426.98999	1126.52893	1636.36865	-115.48682	1123.13757	1523.69946	493.89182	893.40338	1646.03186	-141.12558	873.19849	1555.82458	163.03384	1063.26868	1737.18555	41.81218	1023.55084	1699.18396	216.73695	964.87469	1486.70337	266.35812	519.72748	1806.63599	36.31245	525.45825	1544.14893	162.40683	188.57031	1885.61438	97.23184	296.87628	1333.58533	
519	5.180	45.51157	1531.11597	1821.30945	199.78223	1631.45288	1716.70923				-29.10542	1592.13037	1706.25781	275.78467	1468.37817	1635.51001				100.27736	1353.97998	1684.91223				425.15405	1129.29211	1651.08704	-116.09032	1125.58716	1527.24097	492.59921	894.98901	1663.92908	-142.09822	875.10760	1560.93616	157.90030	1066.24976	1746.53796	37.01824	1026.53381	1707.29175	216.78845	967.35327	1496.82617	260.55542	523.21313	1815.08362	34.32157	529.22534	1563.91760	162.90132	188.14453	1879.34412	90.17406	305.26752	1355.81592	
520	5.190	41.05903	1533.56348	1828.06067	194.94487	1635.34058	1726.59851				-32.83519	1593.14392	1712.62024	272.59933	1471.07898	1645.83386				96.86425	1355.67944	1691.22266				421.47708	1133.88586	1670.45996	-116.85377	1127.61926	1530.12805	489.11877	900.21710	1690.30981	-142.93015	876.97955	1564.56995	153.59698	1069.33154	1754.79431	33.00316	1029.32837	1713.75183	217.35681	969.79053	1507.52893	255.62816	525.13538	1822.83008	31.59427	532.99127	1583.83264	164.44646	186.98244	1873.26660	83.97820	313.32166	1379.30566	
521	5.200	35.92341	1536.13220	1835.67163	191.03716	1638.19519	1734.45435				-37.18113	1595.50037	1719.33264	269.49692	1474.36426	1655.69104				93.07942	1358.33081	1697.59851				418.77081	1137.78162	1689.73438	-117.59171	1130.23914	1533.42236	486.69791	905.07776	1715.18579	-144.31590	879.02423	1568.34058	148.87589	1071.89771	1763.50281	28.49469	1032.57800	1720.95166	217.49083	972.11505	1517.32654	251.06798	527.74054	1829.57727	29.27151	537.93390	1604.41187	164.51671	187.88884	1868.78503	77.65718	319.49005	1403.41052	
522	5.210	31.06438	1538.20679	1842.18628	186.69154	1640.78662	1741.91382				-41.42855	1597.58801	1725.68384	265.90091	1477.80176	1666.25293				89.53018	1360.71204	1703.65454				415.59781	1141.22522	1707.28088	-118.14410	1132.28394	1535.64539	482.93979	910.56415	1740.51038	-144.67752	881.20801	1570.09546	144.16612	1075.12988	1772.10547	25.08409	1034.99304	1726.71875	216.27213	974.96887	1527.04590	246.92747	529.54608	1835.31641	26.71314	543.37329	1624.41333	166.34122	186.83669	1863.69128	72.73051	325.38791	1427.16614	
523	5.220	25.57069	1539.81665	1847.98523	181.74887	1643.65125	1749.74829				-45.62573	1599.28650	1731.75232	262.78915	1480.50854	1676.69287				85.54649	1363.56445	1710.41138				411.74271	1146.82800	1726.92651	-118.58212	1134.40442	1537.96118	478.31577	916.58160	1765.65759	-145.36443	883.06561	1574.27759	139.09302	1078.73425	1781.37231	20.55741	1038.46313	1734.47949	215.88423	977.10754	1535.85742	242.47839	531.33142	1841.62402	23.30782	548.87799	1646.09680	167.48747	185.96928	1859.29590	66.85686	330.68155	1451.34644	
524	5.230	20.20643	1542.24780	1853.27930	176.60123	1646.49902	1757.70776				-50.04619	1600.48560	1736.55908	258.88788	1483.85925	1687.12158				82.11713	1365.33447	1716.68091				407.70874	1151.57837	1744.63110	-118.99926	1136.00806	1540.35339	473.46704	922.88464	1791.25818	-146.17159	885.31152	1578.87537	135.69522	1081.06335	1788.46228	17.30768	1040.89453	1740.25391	214.09314	979.59814	1544.23401	239.31157	531.90247	1846.62158	19.70810	554.87720	1666.40991	169.14557	184.61211	1855.00916	62.38296	334.83310	1474.55872	
525	5.240	14.57138	1544.61780	1860.82019	171.56979	1649.16431	1765.50439				-54.50560	1601.25183	1740.71887	255.06015	1487.17712	1697.74695				78.21949	1367.68909	1724.33154				403.81610	1155.83362	1761.80896	-119.10237	1137.76038	1542.98938	468.28680	929.19733	1816.14539	-146.70529	886.48682	1581.59131	131.01654	1083.91394	1796.90906	13.07395	1044.30774	1747.34985	212.09686	981.29163	1553.73767	235.94029	531.57935	1850.94971	14.80662	559.78931	1685.97070	170.16487	183.72339	1851.56763	56.98271	338.72040	1498.22656	
526	5.250	8.70401	1546.34729	1866.74121	166.50652	1651.31421	1773.21362				-59.65508	1603.42126	1747.70288	251.15346	1489.74805	1708.25525				74.77930	1370.02539	1731.35706				399.54153	1160.87891	1780.75378	-119.32990	1138.78369	1544.95129	462.51212	935.59113	1841.25476	-147.05962	887.81042	1584.90503	126.84722	1086.30420	1804.85510	9.71827	1046.65039	1753.38342	210.49503	982.71716	1562.83215	232.88483	531.45313	1855.45667	9.65608	565.23334	1709.30017	171.68776	181.65302	1848.44897	52.82460	340.55502	1522.42981	
527	5.260	2.45723	1548.32373	1872.14258	161.65335	1653.71411	1780.22278				-63.51119	1604.62769	1752.58667	247.33606	1492.65466	1718.06750				71.69273	1371.47778	1737.82556				394.91876	1165.78638	1799.33606	-119.51157	1139.78821	1546.79822	456.52859	942.40283	1865.75171	-147.83546	888.40448	1588.56702	122.69090	1087.99646	1813.34534	5.41870	1049.22632	1761.22852	209.67357	984.28656	1571.24353	230.81090	530.76233	1857.67590	4.65921	572.41559	1729.61340	172.69551	179.89043	1846.25757	48.45889	341.05487	1546.23035	
528	5.270	-3.32200	1550.70166	1878.49377	155.80003	1655.86133	1788.64355				-68.59927	1604.99377	1756.73083	243.98198	1495.00134	1728.06653				67.78033	1373.65564	1745.67310				390.08936	1169.92542	1816.78870	-119.51459	1140.67676	1548.53076	449.83130	949.19958	1890.00806	-148.43597	888.29913	1589.60522	117.80975	1090.75525	1822.29553	2.09696	1051.18787	1767.15173	207.09064	984.70880	1579.80469	228.70943	529.99634	1861.12817	-1.93329	580.68451	1747.78455	174.44614	177.06941	1843.00977	44.37863	340.58374	1570.10693	
529	5.280	-10.30352	1552.22656	1884.02808	150.71695	1657.35547	1795.76001				-73.26379	1606.74829	1761.67786	239.45453	1497.63696	1738.32800				64.58751	1374.69751	1751.91064				385.20996	1174.55054	1834.44275	-119.41647	1141.42712	1549.92383	442.84378	955.89124	1914.10498	-148.74118	888.74207	1595.09009	115.06664	1090.83264	1828.73926	-1.78324	1052.58594	1773.84119	204.36313	986.13812	1588.04199	227.15747	528.57117	1863.44678	-9.09421	588.21655	1768.01245	175.49924	175.18942	1841.16052	39.84538	338.54861	1593.20007	
